<svg xmlns="http://www.w3.org/2000/svg" xmlns:xlink="http://www.w3.org/1999/xlink" fill="none" version="1.1" width="24" height="24" viewBox="0 0 24 24"><defs><clipPath id="master_svg0_25_48071"><rect x="0" y="0" width="24" height="24" rx="0"/></clipPath></defs><g clip-path="url(#master_svg0_25_48071)"><g><path d="M6.28276,5.98987C4.34616,7.4559999999999995,3,9.60511,3,12C3,16.418300000000002,7.58172,20,12,20C14.1607,20,16.3604,19.1434,18.0443,17.7514L17.334,17.0411Q14.9338,19,12.00001,19Q8.959399999999999,19,6.4920100000000005,16.895899999999997Q4,14.7709,4,12Q4,9.229099999999999,6.4920100000000005,7.10405Q6.74041,6.89223,6.994619999999999,6.7017299999999995L6.28276,5.98987ZM18.076900000000002,16.369799999999998Q20,14.4341,20,12Q20,9.22909,17.508,7.10405Q15.0406,5,12,5Q9.766539999999999,5,7.84236,6.135260000000001L7.12491,5.41781C8.59694,4.523773,10.31042,4,12,4C16.418300000000002,4,21,7.58172,21,12C21,13.92608,20.1293,15.6932,18.781,17.073900000000002L18.076900000000002,16.369799999999998Z" fill-rule="evenodd" fill="#605E61" fill-opacity="1"/></g><g><path d="" fill="#605E61" fill-opacity="1"/><path d="M4.853613,4.1465060000000005L19.8536,19.1464Q19.9239,19.2168,19.9619,19.3087Q20,19.4005,20,19.5Q20,19.5492,19.9904,19.5975Q19.980800000000002,19.6458,19.9619,19.6913Q19.9431,19.736800000000002,19.9157,19.7778Q19.8884,19.8187,19.8536,19.8536Q19.8187,19.8884,19.7778,19.9157Q19.736800000000002,19.9431,19.6913,19.9619Q19.6458,19.980800000000002,19.5975,19.9904Q19.5492,20,19.5,20Q19.4005,20,19.3087,19.9619Q19.2168,19.9239,19.1464,19.8536L4.146447,4.853553Q4.07612,4.783227,4.03806,4.691342Q4,4.5994562,4,4.5Q4,4.4507543,4.009607,4.4024549Q4.019215,4.354155,4.03806,4.308658Q4.056906,4.263161,4.084265,4.222215Q4.111625,4.181269,4.146447,4.146447Q4.181269,4.111625,4.222215,4.084265Q4.263161,4.056906,4.308658,4.03806Q4.354155,4.019215,4.4024549,4.009607Q4.4507543,4,4.5,4Q4.5994562,4,4.691342,4.03806Q4.783227,4.07612,4.853553,4.146447L4.853613,4.1465060000000005Z" fill-rule="evenodd" fill="#605E61" fill-opacity="1"/></g><g><path d="M9.32181,9.02892Q9.16621,9.16918,9.02611,9.32493Q8.886009,9.48068,8.762945,9.650220000000001Q8.63988,9.819749999999999,8.535199,10.00121Q8.430517,10.18267,8.345363,10.37408Q8.260209,10.56548,8.195514,10.76473Q8.13082,10.96398,8.0872932,11.1689Q8.0437663,11.37382,8.0218832,11.58216Q8,11.79051,8,12Q8,12.19651,8.0192611,12.39207Q8.0385222,12.58763,8.0768589,12.78036Q8.115196,12.97309,8.172239,13.16114Q8.229282,13.34918,8.304482,13.53073Q8.379682,13.71228,8.472315,13.88559Q8.564948,14.05889,8.674121,14.22228Q8.783295,14.385670000000001,8.907958,14.537569999999999Q9.03262,14.68948,9.17157,14.82843Q9.31052,14.96738,9.46243,15.09204Q9.61433,15.2167,9.77772,15.32588Q9.94111,15.43505,10.11441,15.52768Q10.28772,15.62032,10.46927,15.69552Q10.65082,15.77072,10.83886,15.82776Q11.02691,15.8848,11.21964,15.92314Q11.41237,15.96148,11.60793,15.98074Q11.80349,16,12,16Q12.209489999999999,16,12.41783,15.97812Q12.62618,15.95623,12.8311,15.91271Q13.03602,15.86918,13.23527,15.804490000000001Q13.43452,15.73979,13.62592,15.65464Q13.81733,15.56948,13.99879,15.4648Q14.180250000000001,15.36012,14.349779999999999,15.23705Q14.51931,15.113990000000001,14.67507,14.97389Q14.83082,14.83379,14.97108,14.67819L14.26271,13.969809999999999Q14.0515,14.21242,13.793669999999999,14.40473Q13.53584,14.59705,13.243089999999999,14.73033Q12.95035,14.863620000000001,12.636,14.931809999999999Q12.32166,15,12,15Q11.85262,15,11.70595,14.98555Q11.559280000000001,14.97111,11.41473,14.942350000000001Q11.27018,14.913599999999999,11.12915,14.87082Q10.988109999999999,14.82804,10.85195,14.77164Q10.71579,14.71524,10.58581,14.64576Q10.45583,14.57629,10.33329,14.49441Q10.21075,14.41253,10.096820000000001,14.31903Q9.98289,14.22553,9.87868,14.12132Q9.77447,14.017109999999999,9.68097,13.903179999999999Q9.58747,13.78925,9.50559,13.66671Q9.42371,13.544170000000001,9.35424,13.41419Q9.28476,13.28421,9.22836,13.14805Q9.17196,13.011890000000001,9.12918,12.87085Q9.0864,12.72982,9.05764,12.585270000000001Q9.02889,12.440719999999999,9.01445,12.29405Q9,12.14738,9,12Q9,11.67834,9.06819,11.364Q9.136379999999999,11.04965,9.26967,10.75691Q9.40295,10.46416,9.59527,10.20633Q9.78758,9.9485,10.030190000000001,9.73729L9.32181,9.02892ZM14.79557,13.088470000000001Q15,12.56343,15,12Q15,11.85262,14.98555,11.70595Q14.97111,11.559280000000001,14.942350000000001,11.41473Q14.913599999999999,11.27018,14.87082,11.12915Q14.82804,10.988109999999999,14.77164,10.85195Q14.71524,10.71579,14.64576,10.58581Q14.57629,10.45583,14.49441,10.33329Q14.41253,10.21075,14.31903,10.096820000000001Q14.22553,9.98289,14.12132,9.87868Q14.017109999999999,9.77447,13.903179999999999,9.68097Q13.78925,9.58747,13.66671,9.50559Q13.544170000000001,9.42371,13.41419,9.35424Q13.28421,9.28476,13.14805,9.22836Q13.011890000000001,9.17196,12.87085,9.12918Q12.72982,9.0864,12.585270000000001,9.05764Q12.440719999999999,9.02889,12.29405,9.01445Q12.14738,9,12,9Q11.43657,9,10.911529999999999,9.20443L10.15699,8.449885Q10.58402,8.228197,11.05144,8.114098Q11.51886,8,12,8Q12.19651,8,12.39207,8.0192611Q12.58763,8.0385222,12.78036,8.0768589Q12.97309,8.115196,13.16114,8.172239Q13.34918,8.229282,13.53073,8.304482Q13.71228,8.379682,13.88559,8.472315Q14.05889,8.564948,14.22228,8.674121Q14.385670000000001,8.783295,14.537569999999999,8.907958Q14.68948,9.03262,14.82843,9.17157Q14.96738,9.31052,15.09204,9.46243Q15.2167,9.61433,15.32588,9.77772Q15.43505,9.94111,15.52768,10.11441Q15.62032,10.28772,15.69552,10.46927Q15.77072,10.65082,15.82776,10.83886Q15.8848,11.02691,15.92314,11.21964Q15.96148,11.41237,15.98074,11.60793Q16,11.80349,16,12Q16,12.48114,15.8859,12.94856Q15.771799999999999,13.415980000000001,15.55012,13.84301L14.79557,13.088470000000001Z" fill-rule="evenodd" fill="#605E61" fill-opacity="1"/></g></g></svg>